 <svg
              width="24"
              viewBox="0 0 32 32"
              fill="none"
              xmlns="http://www.w3.org/2000/svg"
            >
              <g clip-path="url(#clip0_1_51)">
                <path
                  d="M16.925 16.5412L16.9914 16.4775C17.0355 16.435 17.0793 16.3922 17.123 16.3491L17.2121 16.2611L17.4824 15.994L17.8493 15.6315L18.1646 15.32L18.4606 15.0274L18.7696 14.7222L19.0529 14.4422L19.4475 14.0523C19.5225 13.9787 19.5989 13.9064 19.6765 13.8355C19.8196 13.7047 19.9669 13.5785 20.1183 13.457C20.2571 13.3457 20.3992 13.2385 20.5447 13.1355C20.7484 12.9912 20.9582 12.8553 21.1742 12.728C21.3854 12.6035 21.602 12.4876 21.824 12.3803C22.0324 12.2796 22.2452 12.1869 22.4624 12.1023C22.5833 12.0551 22.7055 12.0106 22.829 11.9686C22.8908 11.9476 22.9529 11.9273 23.0153 11.9076C22.4678 9.75282 21.4647 7.74042 20.0738 6.00599C19.9409 5.84067 19.7725 5.70732 19.5811 5.61581C19.3898 5.52429 19.1803 5.47694 18.9681 5.47725L7.60571 5.47717C7.56085 5.47714 7.51713 5.4913 7.48082 5.51763C7.4445 5.54396 7.41745 5.58111 7.40354 5.62376C7.38963 5.66641 7.38957 5.71237 7.40338 5.75505C7.41719 5.79773 7.44416 5.83495 7.48041 5.86136C11.3591 8.70417 14.573 12.3567 16.8992 16.5656L16.925 16.5412Z"
                  fill="#00D6B9"
                />
                <path
                  d="M26.0642 18.5193L26.0566 18.5327L26.0653 18.5198L26.1177 18.4213C26.0998 18.4539 26.0823 18.4868 26.0642 18.5193Z"
                  fill="#133C92"
                />
                <path
                  d="M26.3091 18.0611L26.3231 18.0349L26.3298 18.0214L26.3091 18.0611Z"
                  fill="#133C92"
                />
                <path
                  d="M29.6511 12.4102C27.6713 11.4402 25.4037 11.2331 23.2809 11.8284C23.1918 11.8535 23.1033 11.8799 23.0154 11.9076C22.953 11.9273 22.8909 11.9476 22.8291 11.9686C22.7056 12.0105 22.5834 12.0551 22.4625 12.1023C22.2454 12.1868 22.0326 12.2795 21.8241 12.3803C21.6022 12.4874 21.3856 12.6033 21.1743 12.7279C20.9585 12.8551 20.7486 12.991 20.5448 13.1355C20.3994 13.2385 20.2573 13.3457 20.1184 13.457C19.967 13.5784 19.8198 13.7046 19.6766 13.8355C19.599 13.9064 19.5227 13.9787 19.4476 14.0523L19.053 14.4422L18.7697 14.7222L18.4607 15.0274L18.1647 15.3199L17.8494 15.6314L17.4825 15.994L17.2122 16.2611L17.1231 16.3491C17.0794 16.3922 17.0356 16.435 16.9915 16.4775L16.9251 16.5412C16.8918 16.5729 16.8584 16.6045 16.8249 16.6359C16.7878 16.6706 16.7506 16.7051 16.7132 16.7395C15.7362 17.6372 14.649 18.407 13.4778 19.0304C13.5477 19.0634 13.6178 19.0961 13.6881 19.1287C13.7436 19.1544 13.7992 19.1799 13.8549 19.2054C13.9088 19.2299 13.9627 19.2543 14.0167 19.2786C14.0698 19.3025 14.123 19.3263 14.1763 19.3499C14.2346 19.3758 14.2929 19.4015 14.3514 19.4269C14.4187 19.4563 14.4861 19.4855 14.5537 19.5145C14.6183 19.5422 14.6831 19.5697 14.748 19.5971C14.832 19.6325 14.9162 19.6676 15.0005 19.7023C15.0683 19.7302 15.1361 19.7579 15.2041 19.7854C15.3086 19.8276 15.4134 19.8693 15.5185 19.9106C15.6176 19.9495 15.717 19.9879 15.8166 20.026C15.891 20.0544 15.9656 20.0825 16.0403 20.1104C16.1687 20.1584 16.2976 20.2056 16.4268 20.2521C16.4921 20.2756 16.5574 20.2989 16.6228 20.322C16.7142 20.3542 16.8058 20.3861 16.8977 20.4176C16.9731 20.4435 17.0487 20.4692 17.1244 20.4946C17.2351 20.5317 17.346 20.5683 17.4573 20.6044C17.5741 20.6423 17.6913 20.6796 17.8088 20.7163C17.9521 20.7611 18.096 20.805 18.2404 20.8481C18.3368 20.8768 18.4334 20.9052 18.5303 20.9332C18.7243 20.9892 18.9192 21.0437 19.1151 21.0966C19.1855 21.1157 19.2558 21.1335 19.326 21.1502C19.4595 21.1821 19.5927 21.2098 19.7256 21.2334C19.8785 21.2607 20.0307 21.2825 20.1823 21.2991C20.389 21.3217 20.5943 21.3346 20.7979 21.3378C20.9838 21.3407 21.168 21.3357 21.3505 21.3228C21.5245 21.3105 21.6966 21.2911 21.8669 21.2647C22.1015 21.2284 22.3338 21.1785 22.5625 21.1151C22.7158 21.0726 22.8668 21.0242 23.0155 20.9699C23.153 20.9198 23.2883 20.8647 23.4215 20.8047C23.5749 20.7355 23.7252 20.6599 23.8723 20.5779C23.9446 20.5376 24.016 20.4957 24.0867 20.4524C24.1545 20.4107 24.2216 20.3677 24.2879 20.3232C24.3924 20.2531 24.4949 20.1795 24.5952 20.1025C24.681 20.0368 24.7651 19.9685 24.8475 19.8979C24.9958 19.7708 25.1385 19.6359 25.2756 19.4933C25.343 19.4232 25.4088 19.3512 25.4733 19.2774C25.5548 19.184 25.634 19.0878 25.7107 18.9886C25.7719 18.9095 25.8314 18.8286 25.8893 18.7459C26.0528 18.5122 26.201 18.2681 26.3329 18.0152L26.4849 17.712L27.8586 14.9737L27.8562 14.9793C28.2937 14.0211 28.9019 13.1505 29.6511 12.4102Z"
                  fill="#133C9A"
                />
                <path
                  d="M12.4191 26.5433C15.2025 26.5443 17.9354 25.8008 20.3347 24.3899C22.734 22.9791 24.7122 20.9521 26.0643 18.5193C26.158 18.3512 26.2486 18.1813 26.3361 18.0095C26.2033 18.2645 26.0541 18.5105 25.8893 18.746C25.8314 18.8287 25.7719 18.9096 25.7107 18.9887C25.6341 19.0878 25.5549 19.1841 25.4733 19.2775C25.4089 19.3513 25.343 19.4232 25.2756 19.4933C25.1387 19.6359 24.996 19.7708 24.8476 19.8979C24.7651 19.9686 24.681 20.0368 24.5953 20.1026C24.4949 20.1796 24.3925 20.2531 24.2879 20.3233C24.2216 20.3677 24.1546 20.4108 24.0867 20.4525C24.0161 20.4958 23.9446 20.5376 23.8723 20.578C23.7253 20.66 23.575 20.7356 23.4215 20.8048C23.2884 20.8648 23.1531 20.9198 23.0155 20.97C22.8669 21.0243 22.7159 21.0726 22.5625 21.1152C22.3337 21.1786 22.1015 21.2285 21.8669 21.2648C21.6967 21.2912 21.5245 21.3105 21.3505 21.3228C21.168 21.3357 20.9839 21.3407 20.7979 21.3378C20.5944 21.3346 20.3892 21.3217 20.1823 21.2991C20.0307 21.2826 19.8785 21.2607 19.7256 21.2335C19.5928 21.2098 19.4596 21.1821 19.326 21.1503C19.2558 21.1336 19.1855 21.1157 19.1151 21.0967C18.9192 21.0438 18.7243 20.9893 18.5303 20.9332C18.4334 20.9052 18.3368 20.8769 18.2404 20.8481C18.096 20.8051 17.9521 20.7611 17.8088 20.7163C17.6913 20.6796 17.5741 20.6423 17.4573 20.6045C17.346 20.5684 17.235 20.5318 17.1244 20.4946C17.0487 20.4692 16.9731 20.4436 16.8976 20.4176C16.8058 20.3861 16.7142 20.3542 16.6228 20.322C16.5574 20.2989 16.492 20.2756 16.4268 20.2522C16.2975 20.2056 16.1686 20.1584 16.0403 20.1104C15.9656 20.0825 15.891 20.0544 15.8166 20.026C15.7169 19.988 15.6176 19.9495 15.5185 19.9106C15.4134 19.8694 15.3086 19.8276 15.2041 19.7854C15.1361 19.7579 15.0682 19.7302 15.0005 19.7023C14.9161 19.6676 14.8319 19.6325 14.7479 19.5971C14.683 19.5698 14.6183 19.5423 14.5536 19.5145C14.4861 19.4856 14.4186 19.4564 14.3513 19.427C14.2929 19.4015 14.2345 19.3758 14.1763 19.35C14.123 19.3263 14.0698 19.3026 14.0167 19.2787C13.9627 19.2544 13.9088 19.2299 13.8549 19.2054C13.7992 19.18 13.7436 19.1544 13.6881 19.1287C13.6178 19.0962 13.5477 19.0634 13.4778 19.0304C13.4044 18.9958 13.3312 18.961 13.2582 18.9259C13.1799 18.8882 13.1017 18.8503 13.0238 18.8121C12.9573 18.7795 12.8909 18.7467 12.8248 18.7137C9.33816 16.9742 6.18976 14.6267 3.52746 11.7817C3.4983 11.7506 3.46046 11.7289 3.41885 11.7196C3.37724 11.7103 3.33379 11.7137 3.29415 11.7294C3.25451 11.7451 3.22051 11.7724 3.19657 11.8077C3.17263 11.843 3.15985 11.8846 3.15991 11.9273L3.16556 21.954V22.7674C3.16491 23.0002 3.22177 23.2294 3.33109 23.4349C3.44042 23.6403 3.59881 23.8156 3.79219 23.945C6.34812 25.6441 9.34998 26.5482 12.4191 26.5433"
                  fill="#3370FF"
                />
              </g>
            </svg>